<svg version="1.1" id="Layer_1" xmlns="http://www.w3.org/2000/svg" xmlns:xlink="http://www.w3.org/1999/xlink" x="0px" y="0px"
	 width="100%" viewBox="0 0 200 200" enable-background="new 0 0 200 200" xml:space="preserve">
<path fill="#161616" opacity="1.000000" stroke="none" 
	d="
M66.000000,0.999999 
	C82.354225,1.000000 98.708458,1.000000 115.628525,1.344399 
	C122.072571,3.767191 128.014908,5.681654 133.818115,7.951802 
	C161.870789,18.925699 179.338242,40.333042 190.030151,67.399445 
	C196.487244,83.745430 196.040741,101.050453 193.197540,118.473541 
	C189.804108,139.268372 179.618774,156.281296 165.327728,170.814575 
	C153.430801,182.913132 138.796875,191.224045 122.354347,196.148651 
	C119.048454,197.138794 116.108612,199.351166 113.000000,201.000000 
	C99.979103,201.000000 86.958214,201.000000 73.388290,200.659897 
	C70.736839,199.112503 68.756905,197.570694 66.513237,196.749146 
	C41.522217,187.598297 21.167881,172.766968 7.559356,149.416550 
	C5.784520,146.371140 3.206174,143.794022 1.000000,141.000000 
	C1.000000,131.979111 1.000000,122.958214 1.343641,113.560455 
	C2.712607,115.392097 4.098045,117.506248 4.705375,119.824280 
	C8.952244,136.033478 17.898605,149.486435 29.113003,161.563705 
	C40.281384,173.591431 53.970421,182.153595 68.999802,188.300201 
	C80.108727,192.843475 91.716133,195.456421 104.049057,193.157288 
	C115.675499,190.989883 126.199875,186.317383 136.471863,180.777176 
	C156.323746,170.070053 171.418076,154.524368 179.969101,133.819565 
	C190.096939,109.296852 190.620987,84.455856 177.684067,60.248199 
	C170.584747,46.963921 160.954132,35.917206 149.282913,26.596050 
	C137.954147,17.548403 124.474159,13.296872 110.636322,10.032769 
	C100.568031,7.657835 90.350296,5.841973 80.005821,7.285079 
	C61.318150,9.892099 46.031815,19.460098 32.554184,32.046463 
	C19.992292,43.777649 10.536619,57.733727 4.435242,73.903221 
	C3.731352,75.768623 2.165963,77.308952 1.000000,79.000000 
	C1.000000,72.645599 1.000000,66.291206 1.332479,59.392746 
	C3.120831,56.877148 4.596485,54.919868 6.029079,52.931561 
	C11.546356,45.274063 16.315172,36.915165 22.727594,30.102077 
	C32.798103,19.402328 44.861790,11.091653 58.664097,5.525889 
	C61.290649,4.466735 63.563797,2.531189 66.000000,0.999999 
z"/>
<path fill="#191919" opacity="1.000000" stroke="none" 
	d="
M1.000000,79.468658 
	C2.165963,77.308952 3.731352,75.768623 4.435242,73.903221 
	C10.536619,57.733727 19.992292,43.777649 32.554184,32.046463 
	C46.031815,19.460098 61.318150,9.892099 80.005821,7.285079 
	C90.350296,5.841973 100.568031,7.657835 110.636322,10.032769 
	C124.474159,13.296872 137.954147,17.548403 149.282913,26.596050 
	C160.954132,35.917206 170.584747,46.963921 177.684067,60.248199 
	C190.620987,84.455856 190.096939,109.296852 179.969101,133.819565 
	C171.418076,154.524368 156.323746,170.070053 136.471863,180.777176 
	C126.199875,186.317383 115.675499,190.989883 104.049057,193.157288 
	C91.716133,195.456421 80.108727,192.843475 68.999802,188.300201 
	C53.970421,182.153595 40.281384,173.591431 29.113003,161.563705 
	C17.898605,149.486435 8.952244,136.033478 4.705375,119.824280 
	C4.098045,117.506248 2.712607,115.392097 1.343641,113.091797 
	C1.000000,101.979103 1.000000,90.958214 1.000000,79.468658 
M26.494080,47.991528 
	C13.498741,63.765259 4.843497,81.108566 8.080297,102.278397 
	C9.349973,110.582535 10.537007,119.184456 13.685269,126.861961 
	C22.605387,148.614990 38.426655,164.714645 58.477669,176.559570 
	C69.106636,182.838516 80.400642,187.503845 93.138016,188.089020 
	C107.400215,188.744247 119.161469,181.921478 131.194595,176.088165 
	C143.464249,170.140182 153.201691,160.966537 162.081238,150.598129 
	C176.067978,134.266205 181.412369,115.223892 180.832703,94.319153 
	C180.478867,81.558510 176.599121,69.899139 169.622482,58.749195 
	C151.284500,29.441778 124.112900,15.470985 90.905487,13.280926 
	C63.242752,11.456544 44.304203,28.575401 26.494080,47.991528 
z"/>
<path fill="#131313" opacity="1.000000" stroke="none" 
	d="
M113.468658,201.000000 
	C116.108612,199.351166 119.048454,197.138794 122.354347,196.148651 
	C138.796875,191.224045 153.430801,182.913132 165.327728,170.814575 
	C179.618774,156.281296 189.804108,139.268372 193.197540,118.473541 
	C196.040741,101.050453 196.487244,83.745430 190.030151,67.399445 
	C179.338242,40.333042 161.870789,18.925699 133.818115,7.951802 
	C128.014908,5.681654 122.072571,3.767191 116.097183,1.344399 
	C125.354225,1.000000 134.708450,1.000000 144.588715,1.344501 
	C146.307175,2.746866 147.415665,3.922488 148.706268,4.842665 
	C155.028717,9.350429 161.782272,13.339471 167.677246,18.343758 
	C181.812668,30.343439 190.618027,45.992050 196.990982,63.189255 
	C197.783447,65.327721 199.637726,67.072701 201.000000,69.000000 
	C201.000000,90.020897 201.000000,111.041786 200.661346,132.619171 
	C199.096634,135.653732 197.781006,138.092194 196.664337,140.618607 
	C194.719604,145.018555 193.181915,149.620056 190.975464,153.878998 
	C180.771225,173.575424 165.422043,187.934875 145.375320,197.381439 
	C143.716782,198.163010 142.449219,199.774261 141.000000,201.000000 
	C131.979111,201.000000 122.958214,201.000000 113.468658,201.000000 
z"/>
<path fill="#0B0B0B" opacity="1.000000" stroke="none" 
	d="
M201.000000,156.000000 
	C201.000000,170.923279 201.000000,185.846558 201.000000,201.000000 
	C187.646652,201.000000 174.291992,201.000000 160.526031,200.655975 
	C160.720245,199.564667 161.174011,198.546173 161.953568,198.110123 
	C177.988754,189.140656 189.170517,175.775574 197.308960,159.553741 
	C198.031158,158.114227 199.746124,157.172775 201.000000,156.000000 
z"/>
<path fill="#0E0E0E" opacity="1.000000" stroke="none" 
	d="
M201.000000,68.531380 
	C199.637726,67.072701 197.783447,65.327721 196.990982,63.189255 
	C190.618027,45.992050 181.812668,30.343439 167.677246,18.343758 
	C161.782272,13.339471 155.028717,9.350429 148.706268,4.842665 
	C147.415665,3.922488 146.307175,2.746866 145.057373,1.344501 
	C151.021149,1.000000 157.042297,1.000000 163.587814,1.340863 
	C164.575348,2.344250 164.894394,3.228843 165.522827,3.636745 
	C180.333557,13.250071 190.302078,26.848848 197.833435,42.517181 
	C198.484833,43.872375 199.925797,44.848038 201.000000,46.000000 
	C201.000000,53.354252 201.000000,60.708508 201.000000,68.531380 
z"/>
<path fill="#131313" opacity="1.000000" stroke="none" 
	d="
M1.000000,141.467941 
	C3.206174,143.794022 5.784520,146.371140 7.559356,149.416550 
	C21.167881,172.766968 41.522217,187.598297 66.513237,196.749146 
	C68.756905,197.570694 70.736839,199.112503 72.919632,200.659897 
	C66.312355,201.000000 59.624710,201.000000 52.389881,200.663361 
	C49.785332,199.016449 47.854053,197.422958 45.650185,196.441757 
	C31.097078,189.962463 19.060139,180.354874 9.198079,167.881271 
	C6.706654,164.730103 3.745373,161.950394 1.000000,159.000000 
	C1.000000,153.311966 1.000000,147.623917 1.000000,141.467941 
z"/>
<path fill="#0B0B0B" opacity="1.000000" stroke="none" 
	d="
M201.000000,45.531342 
	C199.925797,44.848038 198.484833,43.872375 197.833435,42.517181 
	C190.302078,26.848848 180.333557,13.250071 165.522827,3.636745 
	C164.894394,3.228843 164.575348,2.344250 164.056091,1.340863 
	C176.267151,1.000000 188.534317,1.000000 201.000000,1.000000 
	C201.000000,15.686965 201.000000,30.374825 201.000000,45.531342 
z"/>
<path fill="#0E0E0E" opacity="1.000000" stroke="none" 
	d="
M201.000000,155.531372 
	C199.746124,157.172775 198.031158,158.114227 197.308960,159.553741 
	C189.170517,175.775574 177.988754,189.140656 161.953568,198.110123 
	C161.174011,198.546173 160.720245,199.564667 160.057373,200.655975 
	C153.978851,201.000000 147.957703,201.000000 141.468292,201.000000 
	C142.449219,199.774261 143.716782,198.163010 145.375320,197.381439 
	C165.422043,187.934875 180.771225,173.575424 190.975464,153.878998 
	C193.181915,149.620056 194.719604,145.018555 196.664337,140.618607 
	C197.781006,138.092194 199.096634,135.653732 200.661346,133.087830 
	C201.000000,140.354248 201.000000,147.708496 201.000000,155.531372 
z"/>
<path fill="#0E0E0E" opacity="1.000000" stroke="none" 
	d="
M1.000000,159.468414 
	C3.745373,161.950394 6.706654,164.730103 9.198079,167.881271 
	C19.060139,180.354874 31.097078,189.962463 45.650185,196.441757 
	C47.854053,197.422958 49.785332,199.016449 51.921349,200.663361 
	C44.312424,201.000000 36.624847,201.000000 28.412247,200.657867 
	C27.010843,199.392883 26.211929,198.378342 25.245592,197.561996 
	C18.637278,191.979355 12.034834,186.387848 5.323182,180.931183 
	C4.140504,179.969650 2.453890,179.627945 0.999998,179.000000 
	C1.000000,172.645599 1.000000,166.291214 1.000000,159.468414 
z"/>
<path fill="#0E0E0E" opacity="1.000000" stroke="none" 
	d="
M27.000000,1.000000 
	C34.020947,1.000000 41.041897,1.000000 48.455345,1.332426 
	C47.325619,2.893307 45.957920,4.418588 44.257130,5.304064 
	C28.169823,13.679517 14.883942,25.050545 5.458368,40.735809 
	C4.436560,42.436222 2.507976,43.591736 1.000000,45.000000 
	C1.000000,38.312355 1.000000,31.624710 1.364529,24.456450 
	C2.617731,23.600355 3.688471,23.427580 4.366991,22.818130 
	C11.363330,16.534027 18.316299,10.200989 25.219351,3.814567 
	C26.006845,3.086011 26.415621,1.948101 27.000000,1.000000 
z"/>
<path fill="#131313" opacity="1.000000" stroke="none" 
	d="
M1.000000,45.464653 
	C2.507976,43.591736 4.436560,42.436222 5.458368,40.735809 
	C14.883942,25.050545 28.169823,13.679517 44.257130,5.304064 
	C45.957920,4.418588 47.325619,2.893307 48.923923,1.332426 
	C54.354931,1.000000 59.709858,1.000000 65.532394,0.999999 
	C63.563797,2.531189 61.290649,4.466735 58.664097,5.525889 
	C44.861790,11.091653 32.798103,19.402328 22.727594,30.102077 
	C16.315172,36.915165 11.546356,45.274063 6.029079,52.931561 
	C4.596485,54.919868 3.120831,56.877148 1.332479,58.924339 
	C1.000000,54.643101 1.000000,50.286201 1.000000,45.464653 
z"/>
<path fill="#0B0B0B" opacity="1.000000" stroke="none" 
	d="
M26.531334,1.000000 
	C26.415621,1.948101 26.006845,3.086011 25.219351,3.814567 
	C18.316299,10.200989 11.363330,16.534027 4.366991,22.818130 
	C3.688471,23.427580 2.617731,23.600355 1.364529,23.987917 
	C1.000000,16.402466 1.000000,8.804930 1.000000,1.000000 
	C9.353082,1.000000 17.707874,1.000000 26.531334,1.000000 
z"/>
<path fill="#0B0B0B" opacity="1.000000" stroke="none" 
	d="
M0.999998,179.468781 
	C2.453890,179.627945 4.140504,179.969650 5.323182,180.931183 
	C12.034834,186.387848 18.637278,191.979355 25.245592,197.561996 
	C26.211929,198.378342 27.010843,199.392883 27.943611,200.657867 
	C19.081198,201.000000 10.162394,201.000000 1.000000,201.000000 
	C1.000000,193.981064 1.000000,186.959305 0.999998,179.468781 
z"/>
<path fill="#1D1D1D" opacity="1.000000" stroke="none" 
	d="
M26.736387,47.728737 
	C44.304203,28.575401 63.242752,11.456544 90.905487,13.280926 
	C124.112900,15.470985 151.284500,29.441778 169.622482,58.749195 
	C176.599121,69.899139 180.478867,81.558510 180.832703,94.319153 
	C181.412369,115.223892 176.067978,134.266205 162.081238,150.598129 
	C153.201691,160.966537 143.464249,170.140182 131.194595,176.088165 
	C119.161469,181.921478 107.400215,188.744247 93.138016,188.089020 
	C80.400642,187.503845 69.106636,182.838516 58.477669,176.559570 
	C38.426655,164.714645 22.605387,148.614990 13.685269,126.861961 
	C10.537007,119.184456 9.349973,110.582535 8.080297,102.278397 
	C4.843497,81.108566 13.498741,63.765259 26.736387,47.728737 
M140.649506,35.799381 
	C128.226288,27.659382 114.480873,22.907616 100.063194,19.790266 
	C86.988716,16.963339 74.379387,18.787582 62.968552,25.220627 
	C44.248493,35.774361 29.305773,50.034321 20.157125,70.192871 
	C14.561884,82.521683 13.608057,95.116531 15.693883,107.740532 
	C18.091579,122.252068 23.923594,135.239471 35.085854,146.118225 
	C44.785061,155.571060 54.303032,164.919647 66.197815,171.427841 
	C78.087708,177.933350 90.750961,182.741028 104.385887,178.683517 
	C113.054787,176.103775 121.559738,172.232712 129.356384,167.619415 
	C144.662018,158.562988 158.075912,147.188812 165.685104,130.514435 
	C172.477249,115.630493 174.852371,100.027687 171.423065,83.864349 
	C167.268280,64.281738 156.135986,49.018486 140.649506,35.799381 
z"/>
<path fill="#1F1F1F" opacity="1.000000" stroke="none" 
	d="
M140.960815,35.978531 
	C156.135986,49.018486 167.268280,64.281738 171.423065,83.864349 
	C174.852371,100.027687 172.477249,115.630493 165.685104,130.514435 
	C158.075912,147.188812 144.662018,158.562988 129.356384,167.619415 
	C121.559738,172.232712 113.054787,176.103775 104.385887,178.683517 
	C90.750961,182.741028 78.087708,177.933350 66.197815,171.427841 
	C54.303032,164.919647 44.785061,155.571060 35.085854,146.118225 
	C23.923594,135.239471 18.091579,122.252068 15.693883,107.740532 
	C13.608057,95.116531 14.561884,82.521683 20.157125,70.192871 
	C29.305773,50.034321 44.248493,35.774361 62.968552,25.220627 
	C74.379387,18.787582 86.988716,16.963339 100.063194,19.790266 
	C114.480873,22.907616 128.226288,27.659382 140.960815,35.978531 
M167.000000,100.465759 
	C166.999588,96.799286 167.571182,93.019012 166.869415,89.492088 
	C165.715897,83.694763 164.954681,77.279060 161.884308,72.501900 
	C151.508255,56.357880 138.837769,42.408195 120.071419,35.481342 
	C114.213005,33.318939 108.627060,30.425383 102.792290,28.190500 
	C88.048187,22.543095 74.979607,28.380695 62.561264,35.230858 
	C56.119240,38.784382 50.345783,43.911938 45.074612,49.139442 
	C37.553310,56.598438 30.229105,64.433975 26.041756,74.447014 
	C18.813673,91.731239 20.750111,108.851913 28.725645,125.116203 
	C38.594521,145.241531 54.812141,159.235672 74.636627,169.340347 
	C87.660255,175.978561 100.383904,176.624908 113.450729,169.327637 
	C128.141739,161.123352 143.092758,153.274261 152.681381,138.705658 
	C160.135727,127.379807 168.140121,116.133499 167.000000,100.465759 
z"/>
<path fill="#232323" opacity="1.000000" stroke="none" 
	d="
M167.000000,100.956512 
	C168.140121,116.133499 160.135727,127.379807 152.681381,138.705658 
	C143.092758,153.274261 128.141739,161.123352 113.450729,169.327637 
	C100.383904,176.624908 87.660255,175.978561 74.636627,169.340347 
	C54.812141,159.235672 38.594521,145.241531 28.725645,125.116203 
	C20.750111,108.851913 18.813673,91.731239 26.041756,74.447014 
	C30.229105,64.433975 37.553310,56.598438 45.074612,49.139442 
	C50.345783,43.911938 56.119240,38.784382 62.561264,35.230858 
	C74.979607,28.380695 88.048187,22.543095 102.792290,28.190500 
	C108.627060,30.425383 114.213005,33.318939 120.071419,35.481342 
	C138.837769,42.408195 151.508255,56.357880 161.884308,72.501900 
	C164.954681,77.279060 165.715897,83.694763 166.869415,89.492088 
	C167.571182,93.019012 166.999588,96.799286 167.000000,100.956512 
M151.880463,65.271683 
	C149.882080,62.642944 148.046188,59.869534 145.856979,57.410698 
	C136.741867,47.172924 124.659050,41.490368 112.368591,36.349056 
	C94.874245,29.030878 77.590240,28.781044 61.845177,40.649178 
	C54.499638,46.186005 47.825619,52.708870 41.336296,59.268620 
	C21.982746,78.832191 22.565269,104.448570 34.062660,126.493919 
	C42.300556,142.289444 55.004139,153.889496 70.366966,162.515213 
	C80.872322,168.413651 92.326233,172.275131 104.238869,168.222412 
	C123.007133,161.837387 139.352676,151.369339 150.962433,134.880142 
	C159.573502,122.649933 163.011963,108.793999 162.060989,93.773384 
	C161.461716,84.307961 159.678604,75.361687 153.657104,67.097786 
	C153.100143,66.715988 152.543198,66.334183 151.880463,65.271683 
z"/>
<path fill="#252525" opacity="1.000000" stroke="none" 
	d="
M153.808029,67.629486 
	C159.678604,75.361687 161.461716,84.307961 162.060989,93.773384 
	C163.011963,108.793999 159.573502,122.649933 150.962433,134.880142 
	C139.352676,151.369339 123.007133,161.837387 104.238869,168.222412 
	C92.326233,172.275131 80.872322,168.413651 70.366966,162.515213 
	C55.004139,153.889496 42.300556,142.289444 34.062660,126.493919 
	C22.565269,104.448570 21.982746,78.832191 41.336296,59.268620 
	C47.825619,52.708870 54.499638,46.186005 61.845177,40.649178 
	C77.590240,28.781044 94.874245,29.030878 112.368591,36.349056 
	C124.659050,41.490368 136.741867,47.172924 145.856979,57.410698 
	C148.046188,59.869534 149.882080,62.642944 151.858978,65.785843 
	C151.837479,66.299995 151.994919,66.643768 151.540649,66.580276 
	C147.722061,66.396637 144.357742,66.276489 140.949707,65.804802 
	C139.458023,63.672543 138.354767,61.317413 136.504501,60.207150 
	C126.709869,54.329784 117.174416,47.684029 106.701630,43.354786 
	C92.227104,37.371311 77.505417,38.694233 64.624863,48.383316 
	C58.322308,53.124252 52.651802,58.794373 47.133564,64.470116 
	C36.354717,75.556610 33.185307,89.185707 35.594383,104.087135 
	C39.383137,127.522636 53.570625,143.640381 73.440323,155.073547 
	C85.791763,162.180634 99.199570,163.989914 111.905434,156.317902 
	C121.361320,150.608261 130.519745,144.029968 138.640701,136.565659 
	C154.419006,122.063187 157.178253,92.544785 148.951782,75.420631 
	C149.991257,73.041893 150.964096,70.997841 151.960663,68.964935 
	C151.984390,68.976097 151.952209,68.933128 152.244019,68.886131 
	C152.959885,68.435921 153.383957,68.032700 153.808029,67.629486 
z"/>
<path fill="#B9B9B9" opacity="1.000000" stroke="none" 
	d="
M153.732574,67.363632 
	C153.383957,68.032700 152.959885,68.435921 152.172394,68.604477 
	C151.870941,67.794464 151.932922,67.219116 151.994904,66.643768 
	C151.994919,66.643768 151.837479,66.299995 151.911865,66.126190 
	C152.543198,66.334183 153.100143,66.715988 153.732574,67.363632 
z"/>
<path fill="#2A2A2A" opacity="1.000000" stroke="none" 
	d="
M148.885147,75.755318 
	C157.178253,92.544785 154.419006,122.063187 138.640701,136.565659 
	C130.519745,144.029968 121.361320,150.608261 111.905434,156.317902 
	C99.199570,163.989914 85.791763,162.180634 73.440323,155.073547 
	C53.570625,143.640381 39.383137,127.522636 35.594383,104.087135 
	C33.185307,89.185707 36.354717,75.556610 47.133564,64.470116 
	C52.651802,58.794373 58.322308,53.124252 64.624863,48.383316 
	C77.505417,38.694233 92.227104,37.371311 106.701630,43.354786 
	C117.174416,47.684029 126.709869,54.329784 136.504501,60.207150 
	C138.354767,61.317413 139.458023,63.672543 140.501160,65.947067 
	C134.729309,66.345230 129.362289,66.249580 123.946983,65.800064 
	C120.611511,63.095669 117.503899,60.428043 114.007080,58.447636 
	C95.486404,47.958534 80.601349,48.498665 64.722359,60.831932 
	C62.882034,62.261322 61.564579,64.363892 59.565140,66.287926 
	C55.734898,66.421486 52.344227,66.421486 48.815472,66.421486 
	C49.355068,68.704277 49.722286,70.257797 49.922268,72.128418 
	C43.095867,82.194130 41.319065,93.251297 43.520561,104.377312 
	C47.161160,122.776283 57.210106,137.254105 73.680771,146.749146 
	C81.867020,151.468384 90.440666,154.984848 100.553726,152.022552 
	C101.857132,151.393921 102.822372,150.655838 104.167587,149.889999 
	C109.919350,146.972351 115.624519,144.561981 120.600395,141.102631 
	C135.479324,130.758377 144.075058,116.505669 144.797363,98.201469 
	C144.931656,94.798538 142.735718,91.303642 141.712769,87.504074 
	C144.168594,83.356415 146.526871,79.555870 148.885147,75.755318 
z"/>
<path fill="#FDFDFD" opacity="1.000000" stroke="none" 
	d="
M123.995262,66.153931 
	C129.362289,66.249580 134.729309,66.345230 140.544891,66.298615 
	C144.357742,66.276489 147.722061,66.396637 151.540634,66.580276 
	C151.932922,67.219116 151.870941,67.794464 151.880585,68.651474 
	C151.952209,68.933128 151.984390,68.976097 151.592728,68.918411 
	C145.457382,71.913773 139.713699,74.966827 133.666412,77.855125 
	C128.253540,74.541977 123.124138,71.425018 118.069885,68.190628 
	C117.624702,67.905739 117.670975,66.852882 117.875725,66.293076 
	C120.173401,66.337601 122.084335,66.245766 123.995262,66.153931 
z"/>
<path fill="#B9B9B9" opacity="1.000000" stroke="none" 
	d="
M133.970016,78.019882 
	C139.713699,74.966827 145.457382,71.913773 151.569000,68.907249 
	C150.964096,70.997841 149.991257,73.041893 148.951782,75.420631 
	C146.526871,79.555870 144.168594,83.356415 141.471283,87.723160 
	C138.745590,91.559395 136.358932,94.829437 133.974457,97.624222 
	C133.974442,90.772614 133.972229,84.396255 133.970016,78.019882 
z"/>
<path fill="#FDFDFD" opacity="1.000000" stroke="none" 
	d="
M50.089500,71.811317 
	C49.722286,70.257797 49.355068,68.704277 48.815472,66.421486 
	C52.344227,66.421486 55.734898,66.421486 60.001549,66.427139 
	C63.920467,66.341820 66.963402,66.250832 70.437454,66.298462 
	C74.478096,66.455589 78.122810,66.183205 81.682526,66.613640 
	C83.500069,66.833420 85.165184,68.313713 86.903862,69.575500 
	C90.664406,75.960373 94.405769,82.003098 98.179520,88.025528 
	C104.071991,97.429161 109.986404,106.819031 115.955826,116.559235 
	C120.278595,121.789986 120.750534,126.639023 115.889359,131.447311 
	C115.793327,131.542282 115.815636,131.756912 115.511612,132.108459 
	C111.422874,138.173386 107.605247,144.045578 103.787621,149.917770 
	C102.822372,150.655838 101.857132,151.393921 100.438141,151.692200 
	C97.987862,148.168869 95.991333,145.085342 93.960793,141.655151 
	C92.210999,138.543243 90.495209,135.778030 88.743233,132.675568 
	C80.187088,118.794754 71.667137,105.251183 63.087254,91.373611 
	C61.098202,87.993752 59.169079,84.947914 57.126087,81.570755 
	C54.704647,78.096733 52.397076,74.954025 50.089500,71.811317 
z"/>
<path fill="#2E2E2E" opacity="1.000000" stroke="none" 
	d="
M93.994797,142.001816 
	C95.991333,145.085342 97.987862,148.168869 100.099983,151.582764 
	C90.440666,154.984848 81.867020,151.468384 73.680771,146.749146 
	C57.210106,137.254105 47.161160,122.776283 43.520561,104.377312 
	C41.319065,93.251297 43.095867,82.194130 49.922264,72.128418 
	C52.397076,74.954025 54.704647,78.096733 56.794342,81.756256 
	C55.753933,84.039093 54.552292,85.727188 54.170704,87.583839 
	C51.785538,99.189018 54.054031,110.154060 60.169464,120.066414 
	C67.893036,132.585358 77.956039,142.045258 93.994797,142.001816 
z"/>
<path fill="#2E2E2E" opacity="1.000000" stroke="none" 
	d="
M104.167587,149.889999 
	C107.605247,144.045578 111.422874,138.173386 115.870071,132.083496 
	C128.576324,123.845749 133.655151,112.204597 133.972275,98.099472 
	C136.358932,94.829437 138.745590,91.559395 141.373718,88.070267 
	C142.735718,91.303642 144.931656,94.798538 144.797363,98.201469 
	C144.075058,116.505669 135.479324,130.758377 120.600395,141.102631 
	C115.624519,144.561981 109.919350,146.972351 104.167587,149.889999 
z"/>
<path fill="#2E2E2E" opacity="1.000000" stroke="none" 
	d="
M70.006332,66.159843 
	C66.963402,66.250832 63.920467,66.341820 60.441124,66.293579 
	C61.564579,64.363892 62.882034,62.261322 64.722359,60.831932 
	C80.601349,48.498665 95.486404,47.958534 114.007080,58.447636 
	C117.503899,60.428043 120.611511,63.095669 123.946983,65.800064 
	C122.084335,66.245766 120.173401,66.337601 117.482803,66.208176 
	C113.259148,64.386116 109.853577,62.695637 106.364044,61.201187 
	C95.533646,56.562881 84.664909,55.806026 74.016365,61.609615 
	C72.348473,62.518639 71.326805,64.613373 70.006332,66.159843 
z"/>
<path fill="#333333" opacity="1.000000" stroke="none" 
	d="
M70.437454,66.298462 
	C71.326805,64.613373 72.348473,62.518639 74.016365,61.609615 
	C84.664909,55.806026 95.533646,56.562881 106.364044,61.201187 
	C109.853577,62.695637 113.259148,64.386116 117.096054,66.071823 
	C117.670975,66.852882 117.624702,67.905739 118.069885,68.190628 
	C123.124138,71.425018 128.253540,74.541977 133.666412,77.855133 
	C133.972229,84.396255 133.974442,90.772614 133.974457,97.624222 
	C133.655151,112.204597 128.576324,123.845749 116.141182,131.890747 
	C115.815636,131.756912 115.793327,131.542282 115.889359,131.447311 
	C120.750534,126.639023 120.278595,121.789986 116.116325,116.222145 
	C128.125229,94.725533 115.001678,71.537308 94.475380,68.442055 
	C92.044579,68.075500 89.429085,68.933762 86.899200,69.224258 
	C85.165184,68.313713 83.500069,66.833420 81.682526,66.613640 
	C78.122810,66.183205 74.478096,66.455589 70.437454,66.298462 
z"/>
<path fill="#3B3B3B" opacity="1.000000" stroke="none" 
	d="
M86.903862,69.575500 
	C89.429085,68.933762 92.044579,68.075500 94.475380,68.442055 
	C115.001678,71.537308 128.125229,94.725533 116.052032,115.877655 
	C109.986404,106.819031 104.071991,97.429161 98.179520,88.025528 
	C94.405769,82.003098 90.664406,75.960373 86.903862,69.575500 
z"/>
<path fill="#333333" opacity="1.000000" stroke="none" 
	d="
M93.960793,141.655151 
	C77.956039,142.045258 67.893036,132.585358 60.169464,120.066414 
	C54.054031,110.154060 51.785538,99.189018 54.170704,87.583839 
	C54.552292,85.727188 55.753933,84.039093 56.908211,82.087570 
	C59.169079,84.947914 61.098202,87.993752 62.908634,91.770615 
	C60.034897,102.731812 63.705891,111.521950 69.297935,119.662949 
	C74.010971,126.524277 80.020622,131.872742 88.779419,133.012802 
	C90.495209,135.778030 92.210999,138.543243 93.960793,141.655151 
z"/>
<path fill="#3B3B3B" opacity="1.000000" stroke="none" 
	d="
M88.743233,132.675568 
	C80.020622,131.872742 74.010971,126.524277 69.297935,119.662949 
	C63.705891,111.521950 60.034897,102.731812 62.968563,92.104622 
	C71.667137,105.251183 80.187088,118.794754 88.743233,132.675568 
z"/>
</svg>